<svg width="32" height="32" viewBox="0 0 32 32" fill="none" xmlns="http://www.w3.org/2000/svg">
<g clip-path="url(#clip0)">
<path fill-rule="evenodd" clip-rule="evenodd" d="M9.33333 14.6667V17.8667H14.6267C14.4133 19.2387 13.0267 21.8933 9.33333 21.8933C6.14667 21.8933 3.54667 19.2547 3.54667 16C3.54667 12.7467 6.14667 10.1067 9.33333 10.1067C11.1467 10.1067 12.36 10.88 13.0533 11.5467L15.5867 9.10666C13.96 7.58666 11.8533 6.66666 9.33333 6.66666C4.17333 6.66666 0 10.84 0 16C0 21.16 4.17333 25.3333 9.33333 25.3333C14.72 25.3333 18.2947 21.5467 18.2947 16.2133C18.2947 15.6 18.2267 15.1333 18.1467 14.6667H9.33333ZM9.33333 14.6667L32 17.3333H28V21.3333H25.3333V17.3333H21.3333V14.6667H25.3333V10.6667H28V14.6667H32V17.3333L9.33333 14.6667Z" fill="white"/>
</g>
<defs>
<clipPath id="clip0">
<rect width="32" height="32" fill="white"/>
</clipPath>
</defs>
</svg>
