<svg width="32" height="32" viewBox="0 0 32 32" fill="none" xmlns="http://www.w3.org/2000/svg">
<path d="M16.7499 0C8.01671 0 3.6134 6.26096 3.6134 11.4824C3.6134 14.6436 4.81022 17.4556 7.37685 18.5041C7.79818 18.6761 8.17561 18.5103 8.29814 18.0444C8.38267 17.7217 8.5835 16.9082 8.67295 16.5691C8.79613 16.1081 8.74797 15.9466 8.40855 15.5449C7.66844 14.6718 7.19535 13.5415 7.19535 11.9404C7.19535 7.29527 10.6708 3.13703 16.2457 3.13703C21.1811 3.13703 23.8932 6.15317 23.8932 10.181C23.8932 15.4807 21.5477 19.9535 18.066 19.9535C16.1428 19.9535 14.7039 18.3632 15.1652 16.4128C15.7176 14.0844 16.7873 11.5711 16.7873 9.89074C16.7873 8.38627 15.9803 7.13113 14.3088 7.13113C12.343 7.13113 10.7642 9.16471 10.7642 11.8886C10.7642 13.6237 11.3503 14.7973 11.3503 14.7973C11.3503 14.7973 9.33836 23.3205 8.98649 24.8132C8.28373 27.7854 8.88099 31.4296 8.93144 31.7975C8.9606 32.0157 9.24072 32.0675 9.36784 31.903C9.54968 31.6661 11.8906 28.7761 12.6864 25.8881C12.9115 25.0704 13.9785 20.8361 13.9785 20.8361C14.6174 22.0539 16.4839 23.1269 18.469 23.1269C24.3774 23.1269 28.3866 17.7404 28.3866 10.5296C28.3869 5.07757 23.7684 0 16.7499 0Z" fill="white"/>
</svg>
