<svg width="32" height="32" viewBox="0 0 32 32" fill="none" xmlns="http://www.w3.org/2000/svg">
<g clip-path="url(#clip0)">
<path d="M31.937 6.093C30.76 6.609 29.5 6.964 28.172 7.125C29.527 6.312 30.563 5.026 31.057 3.494C29.786 4.234 28.38 4.77 26.885 5.073C25.693 3.797 23.989 2.994 22.098 2.994C18.473 2.994 15.535 5.931 15.535 9.551C15.535 10.072 15.598 10.572 15.707 11.046C10.254 10.791 5.42 8.171 2.187 4.213C1.619 5.177 1.296 6.297 1.296 7.516C1.296 9.797 2.457 11.797 4.212 12.973C3.139 12.942 2.129 12.645 1.244 12.156V12.235C1.244 15.416 3.504 18.068 6.504 18.672C5.957 18.817 5.373 18.901 4.78 18.901C4.359 18.901 3.957 18.86 3.556 18.786C4.4 21.39 6.816 23.286 9.696 23.343C7.457 25.098 4.619 26.144 1.561 26.144C1.04 26.144 0.520001 26.119 -0.0019989 26.056C2.915 27.916 6.358 29.004 10.077 29.004C22.144 29.004 28.738 19.009 28.738 10.353C28.738 10.077 28.738 9.796 28.717 9.514C30.004 8.597 31.118 7.435 31.998 6.118L31.937 6.093Z" fill="white"/>
</g>
<defs>
<clipPath id="clip0">
<rect width="32" height="32" fill="white"/>
</clipPath>
</defs>
</svg>
